<svg width="249" height="61" viewBox="0 0 249 61" fill="none" xmlns="http://www.w3.org/2000/svg">
<path d="M49 32C49 45.2548 38.2548 56 25 56C11.7452 56 1 45.2548 1 32C1 18.7452 11.7452 8 25 8C38.2548 8 49 18.7452 49 32Z" fill="#D3DEFF" stroke="#3655B3" stroke-width="1.5" stroke-linecap="round" stroke-dasharray="3 6"/>
<circle cx="25.1875" cy="31.8125" r="14.0625" fill="#3655B3"/>
<circle cx="25" cy="32" r="6" fill="#A6BCFF"/>
<circle cx="21.25" cy="29" r="3" fill="white"/>
<path d="M94.8099 46H86.6979V27.616C86.6979 26.656 86.1699 26.176 85.2579 26.176H79.9779V46H71.7699V26.176H66.5859C65.6259 26.176 65.1459 26.656 65.1459 27.616V46H56.9379V24.448C56.9379 20.032 59.1459 17.824 63.5139 17.824H88.2819C92.6499 17.824 94.8099 20.032 94.8099 24.496V46ZM124.139 46H115.931V27.616C115.931 26.656 115.451 26.176 114.491 26.176H108.635C107.675 26.176 107.195 26.656 107.195 27.616V46H98.891V24.448C98.891 20.032 101.099 17.824 105.467 17.824H117.611C121.979 17.824 124.139 20.032 124.139 24.496V46ZM134.763 15.52H130.059C128.907 15.52 128.331 14.896 128.331 13.648V10.432C128.331 9.184 128.955 8.56 130.251 8.56H134.763C135.963 8.56 136.587 9.184 136.587 10.432V13.648C136.587 14.896 135.963 15.52 134.763 15.52ZM136.635 46H128.331V17.824H136.635V46ZM147.278 46H142.574C141.422 46 140.846 45.376 140.846 44.128V38.752C140.846 37.456 141.47 36.832 142.766 36.832H147.278C148.478 36.832 149.102 37.456 149.102 38.752V44.128C149.102 45.376 148.478 46 147.278 46ZM173.907 46H159.843C155.379 46 153.123 43.888 153.123 39.616V24.448C153.123 20.032 155.331 17.824 159.699 17.824H173.811V26.176H162.867C161.907 26.176 161.427 26.656 161.427 27.616V36.16C161.427 37.168 161.907 37.696 162.867 37.696H173.907V46ZM194.356 36.256V27.616C194.356 26.656 193.876 26.176 192.916 26.176H186.82C185.86 26.176 185.38 26.656 185.38 27.616V36.16C185.38 37.168 185.86 37.696 186.82 37.696H192.916C193.876 37.696 194.356 37.216 194.356 36.256ZM196.132 46H183.796C179.332 46 177.076 43.888 177.076 39.616V24.448C177.076 20.032 179.284 17.824 183.652 17.824H196.036C200.404 17.824 202.564 20.032 202.564 24.496V39.424C202.564 43.792 200.404 46 196.132 46ZM244.388 46H236.276V27.616C236.276 26.656 235.748 26.176 234.836 26.176H229.556V46H221.348V26.176H216.164C215.204 26.176 214.724 26.656 214.724 27.616V46H206.516V24.448C206.516 20.032 208.724 17.824 213.092 17.824H237.86C242.228 17.824 244.388 20.032 244.388 24.496V46Z" fill="#3655B3"/>
</svg>
