<svg width="25" height="25" viewBox="0 0 25 25" fill="none" xmlns="http://www.w3.org/2000/svg">
<g clip-path="url(#clip0_53_68)">
<path d="M12.9493 17.6828C12.9493 17.8817 12.8703 18.0724 12.7296 18.2131C12.589 18.3538 12.3982 18.4328 12.1993 18.4328C12.0004 18.4328 11.8096 18.3538 11.669 18.2131C11.5283 18.0724 11.4493 17.8817 11.4493 17.6828V11.9933L9.73031 13.7138C9.58948 13.8546 9.39848 13.9337 9.19931 13.9337C9.00015 13.9337 8.80914 13.8546 8.66831 13.7138C8.52748 13.5729 8.44836 13.3819 8.44836 13.1828C8.44836 12.9836 8.52748 12.7926 8.66831 12.6518L11.6683 9.65177C11.738 9.58192 11.8207 9.52651 11.9119 9.4887C12.003 9.45089 12.1007 9.43143 12.1993 9.43143C12.298 9.43143 12.3956 9.45089 12.4868 9.4887C12.5779 9.52651 12.6606 9.58192 12.7303 9.65177L15.7303 12.6518C15.8711 12.7926 15.9503 12.9836 15.9503 13.1828C15.9503 13.3819 15.8711 13.5729 15.7303 13.7138C15.5895 13.8546 15.3985 13.9337 15.1993 13.9337C15.0001 13.9337 14.8091 13.8546 14.6683 13.7138L12.9493 11.9933V17.6828Z" fill="#3655B3"/>
<path d="M21.1993 21.4328V7.18277L14.4493 0.43277H6.19934C5.40369 0.43277 4.64063 0.74884 4.07802 1.31145C3.51541 1.87406 3.19934 2.63712 3.19934 3.43277V21.4328C3.19934 22.2284 3.51541 22.9915 4.07802 23.5541C4.64063 24.1167 5.40369 24.4328 6.19934 24.4328H18.1993C18.995 24.4328 19.7581 24.1167 20.3207 23.5541C20.8833 22.9915 21.1993 22.2284 21.1993 21.4328ZM14.4493 4.93277C14.4493 5.52951 14.6864 6.1018 15.1084 6.52376C15.5303 6.94572 16.1026 7.18277 16.6993 7.18277H19.6993V21.4328C19.6993 21.8306 19.5413 22.2121 19.26 22.4934C18.9787 22.7747 18.5972 22.9328 18.1993 22.9328H6.19934C5.80152 22.9328 5.41999 22.7747 5.13868 22.4934C4.85738 22.2121 4.69934 21.8306 4.69934 21.4328V3.43277C4.69934 3.03495 4.85738 2.65341 5.13868 2.37211C5.41999 2.0908 5.80152 1.93277 6.19934 1.93277H14.4493V4.93277Z" fill="#3655B3"/>
</g>
<defs>
<clipPath id="clip0_53_68">
<rect width="24" height="24" fill="white" transform="translate(0.199341 0.43277)"/>
</clipPath>
</defs>
</svg>
