<svg width="24" height="24" viewBox="0 0 24 24" fill="none" xmlns="http://www.w3.org/2000/svg">
<path d="M12 2.25C10.0716 2.25 8.18657 2.82183 6.58319 3.89317C4.97982 4.96452 3.73013 6.48726 2.99218 8.26884C2.25422 10.0504 2.06114 12.0108 2.43735 13.9021C2.81355 15.7934 3.74215 17.5307 5.10571 18.8943C6.46928 20.2579 8.20656 21.1865 10.0979 21.5627C11.9892 21.9389 13.9496 21.7458 15.7312 21.0078C17.5127 20.2699 19.0355 19.0202 20.1068 17.4168C21.1782 15.8134 21.75 13.9284 21.75 12C21.75 9.41414 20.7228 6.93419 18.8943 5.10571C17.0658 3.27723 14.5859 2.25 12 2.25ZM12 19.5C10.7843 19.4999 9.58689 19.2042 8.51084 18.6385C7.4348 18.0729 6.51239 17.2541 5.82306 16.2527C5.13373 15.2514 4.69815 14.0975 4.55383 12.8904C4.40951 11.6833 4.56077 10.4592 4.9946 9.32357C5.42842 8.18793 6.1318 7.17476 7.04416 6.37134C7.95651 5.56791 9.0505 4.99831 10.2319 4.71159C11.4133 4.42486 12.6466 4.42961 13.8258 4.72543C15.0049 5.02124 16.0945 5.59926 17.0006 6.40969C17.1452 6.54329 17.2314 6.72837 17.2408 6.925C17.2501 7.12163 17.1817 7.31403 17.0504 7.4607C16.9191 7.60737 16.7354 7.69655 16.539 7.70899C16.3425 7.72142 16.1491 7.65613 16.0003 7.52719C15.0004 6.63282 13.7296 6.09936 12.3909 6.01202C11.0522 5.92468 9.72288 6.2885 8.61523 7.04536C7.50758 7.80222 6.68554 8.90845 6.28041 10.1874C5.87528 11.4663 5.91044 12.844 6.38027 14.1006C6.85011 15.3572 7.72751 16.4201 8.87232 17.1194C10.0171 17.8188 11.3633 18.1144 12.6958 17.9588C14.0283 17.8033 15.2702 17.2057 16.2232 16.2615C17.1762 15.3173 17.7853 14.081 17.9531 12.75H12C11.8011 12.75 11.6103 12.671 11.4697 12.5303C11.329 12.3897 11.25 12.1989 11.25 12C11.25 11.8011 11.329 11.6103 11.4697 11.4697C11.6103 11.329 11.8011 11.25 12 11.25H18.75C18.9489 11.25 19.1397 11.329 19.2803 11.4697C19.421 11.6103 19.5 11.8011 19.5 12C19.4978 13.9884 18.7069 15.8948 17.3008 17.3008C15.8948 18.7069 13.9884 19.4978 12 19.5Z" fill="white"/>
</svg>
