<svg width="21" height="23" viewBox="0 0 21 23" fill="none" xmlns="http://www.w3.org/2000/svg">
<path d="M9 21C9 22.1046 9.89543 23 11 23C12.1046 23 13 22.1046 13 21L9 21ZM9 4L9 21L13 21L13 4L9 4Z" fill="#3655B3"/>
<path d="M16 16C16 17.1046 16.8954 18 18 18C19.1046 18 20 17.1046 20 16L16 16ZM16 7L16 16L20 16L20 7L16 7Z" fill="#3655B3"/>
<path d="M18 18C19.1046 18 20 17.1046 20 16C20 14.8954 19.1046 14 18 14L18 18ZM11 18L18 18L18 14L11 14L11 18Z" fill="#3655B3"/>
<path d="M12 11L4 11" stroke="#3655B3" stroke-width="4" stroke-linejoin="round"/>
<circle cx="18" cy="6" r="2" fill="#E0E6F9" stroke="#3655B3" stroke-width="2" stroke-linecap="round"/>
<circle cx="3" cy="11" r="2" fill="#E0E6F9" stroke="#3655B3" stroke-width="2" stroke-linecap="round"/>
<circle cx="11" cy="3" r="2" fill="#E0E6F9" stroke="#3655B3" stroke-width="2" stroke-linecap="round"/>
</svg>
