<svg width="25" height="25" viewBox="0 0 25 25" fill="none" xmlns="http://www.w3.org/2000/svg">
<g clip-path="url(#clip0_53_58)">
<path d="M12.9493 10.1814C12.9493 9.98252 12.8703 9.79175 12.7296 9.6511C12.589 9.51045 12.3982 9.43143 12.1993 9.43143C12.0004 9.43143 11.8096 9.51045 11.669 9.6511C11.5283 9.79175 11.4493 9.98252 11.4493 10.1814V15.8709L9.73031 14.1504C9.58948 14.0096 9.39848 13.9305 9.19931 13.9305C9.00015 13.9305 8.80914 14.0096 8.66831 14.1504C8.52748 14.2913 8.44836 14.4823 8.44836 14.6814C8.44836 14.8806 8.52748 15.0716 8.66831 15.2124L11.6683 18.2124C11.738 18.2823 11.8207 18.3377 11.9119 18.3755C12.003 18.4133 12.1007 18.4328 12.1993 18.4328C12.298 18.4328 12.3956 18.4133 12.4868 18.3755C12.5779 18.3377 12.6606 18.2823 12.7303 18.2124L15.7303 15.2124C15.8711 15.0716 15.9503 14.8806 15.9503 14.6814C15.9503 14.4823 15.8711 14.2913 15.7303 14.1504C15.5895 14.0096 15.3985 13.9305 15.1993 13.9305C15.0001 13.9305 14.8091 14.0096 14.6683 14.1504L12.9493 15.8709V10.1814Z" fill="#3655B3"/>
<path d="M21.1993 21.4328V7.18277L14.4493 0.43277H6.19934C5.40369 0.43277 4.64063 0.74884 4.07802 1.31145C3.51541 1.87406 3.19934 2.63712 3.19934 3.43277V21.4328C3.19934 22.2284 3.51541 22.9915 4.07802 23.5541C4.64063 24.1167 5.40369 24.4328 6.19934 24.4328H18.1993C18.995 24.4328 19.7581 24.1167 20.3207 23.5541C20.8833 22.9915 21.1993 22.2284 21.1993 21.4328ZM14.4493 4.93277C14.4493 5.52951 14.6864 6.1018 15.1084 6.52376C15.5303 6.94572 16.1026 7.18277 16.6993 7.18277H19.6993V21.4328C19.6993 21.8306 19.5413 22.2121 19.26 22.4934C18.9787 22.7747 18.5972 22.9328 18.1993 22.9328H6.19934C5.80152 22.9328 5.41999 22.7747 5.13868 22.4934C4.85738 22.2121 4.69934 21.8306 4.69934 21.4328V3.43277C4.69934 3.03495 4.85738 2.65341 5.13868 2.37211C5.41999 2.0908 5.80152 1.93277 6.19934 1.93277H14.4493V4.93277Z" fill="#3655B3"/>
</g>
<defs>
<clipPath id="clip0_53_58">
<rect width="24" height="24" fill="white" transform="translate(0.199341 0.43277)"/>
</clipPath>
</defs>
</svg>
